<svg id="Layer_3" data-name="Layer 3" xmlns="http://www.w3.org/2000/svg" viewBox="0 0 188.82 253.45"><defs><style>.cls-1,.cls-2{fill:#fff;}.cls-2{font-size:30px;font-family:OldSansBlack;letter-spacing:0.36em;}.cls-3{letter-spacing:0.32em;}.cls-4{letter-spacing:0.25em;}.cls-5{letter-spacing:0.36em;}</style></defs><path class="cls-1" d="M316.38,192.25s-7.94-15.8,17-28.39L358,154s11.91-5.32,3.55-10.9c0,0-5.83-7.35-40.06,3.55,0,0-29.41,7.35-52.48,31.69,0,0-19,21.8,15.47,44.36,0,0,25.63,19.78,29.67,26.88,0,0,17,19.27,0,35.74,0,0-16.25,14.84-43.87,6.09,0,0-24.59-11.41-8.37-28.14,0,0,8.37-10.52,40.82,5.83,0,0-35.49-10.47-39.55,3.55,0,0-2.66,10.77,15.72,13.18,0,0,10.65,3,23.83-3.55,0,0,19-10.14,6.34-28.39,0,0-6.85-12.42-19.52-16.48,0,0-3.3-2.28-22.31,6.84,0,0-18,6.34-22.57-3,0,0-1-2.28,0-6.59,0,0,3.67-3.55-.45-5.58,0,0-5.12-2-1.32-5.83,0,0-7.12-5.32-1.4-7.1,0,0,1.76-3.29-2.22-6.33,0,0-6.77-3.81-5.25-7.86,0,0,9.63-9.38,9.12-11.67,0,0,5.58-7.09,2.29-9.88,0,0-2.29-3.05,7.35-23.83,0,0,3.14-5.46,5-8.23a6.25,6.25,0,0,0,1.06-3.48v-1s-11.66-1.77-14.45,13.94c0,0-3.29-15.75,16-17.13h0a1.58,1.58,0,0,0-1.9-1.73c-2.92.63-8.12,2.09-11.27,4.89,0,0,7.34-8.34,16-7.32,0,0,25.1-23.83,63.89-10.14,0,0,12.68-12.68,17.75-6.34,0,0,12.67-3.3,18.25,13.18,0,0,19.27,10.14,9.13,18.76,0,0,1.09,8.2-28.4,16.23C341.74,168.72,318.16,177.29,316.38,192.25Z" transform="translate(-208.41 -118.22)"/><text class="cls-2" transform="translate(0 246.25)">S<tspan class="cls-3" x="29.01" y="0">H</tspan><tspan x="60.21" y="0">E-F</tspan><tspan class="cls-4" x="137.25" y="0">L</tspan><tspan class="cls-5" x="161.46" y="0">Y</tspan></text></svg>