<svg xmlns="http://www.w3.org/2000/svg" width="92" height="127.401" viewBox="0 0 92 127.401">
  <g id="Component_9_1" data-name="Component 9 – 1" transform="translate(1)">
    <text id="She-Fly" transform="translate(45 123.401)" fill="#fff" font-size="16" font-family="SegoeUI-Bold, Segoe UI" font-weight="700" letter-spacing="0.3em"><tspan x="-45.045" y="0">SHE-FLY</tspan></text>
    <path id="Shelancer_Logo" data-name="Shelancer Logo" d="M510.638,1238.095a8.236,8.236,0,0,0-4.609-5.022q-.58-.272-1.192-.5c-.78-3.241-5.618-9.214-9.586-6.772-.239-1.822-5.163-1.142-5.075.911-1.054-.663-2.68,1.018-3.153,1.765a2.794,2.794,0,0,0-.162.3c-6.658-3.782-13.759-2.554-22.091-.51a30.818,30.818,0,0,0-10.376,5.883,7.691,7.691,0,0,0-2.69-.239,5.427,5.427,0,0,0-4.726,4.2,7.28,7.28,0,0,0-2.1,8.108c-.362-2.711-.017-4.884,2.163-6.834a8.814,8.814,0,0,1,4.054-2.053l.887-.112a1.525,1.525,0,0,0,.31,1.669,33.916,33.916,0,0,0-1.965,3.491,103.545,103.545,0,0,0-4.195,9.539,8.42,8.42,0,0,0-.715,2.914c0,.975.477,1.684.413,2.695-.508-.348-.973-.739-1.39-1.083a4.567,4.567,0,0,0,1.307,1.579,21.042,21.042,0,0,1-4.445,7.154c-2.344,2.573-1.61,3.792,1.192,5.206,1.581,1.622,1.147,2.733.422,3.768-.92.865-.477,2.506,1.519,3.036-.98,1.39-1.309,2.256.31,3.15,1.343-.1,1.5.935.954,2.125-2.766,6.078,3.06,7.392,9.553,5.723a50.835,50.835,0,0,0,5.9-2.084c1.941-.766,3.8-1.526,5.931-1.292a8.642,8.642,0,0,1,4.011,1.555l.41.348q.658.563,1.273,1.116a7.541,7.541,0,0,0,1.476,1.364q1.209,1.154,2.242,2.268a10.91,10.91,0,0,1,2.668,4.292,11.84,11.84,0,0,1,.46,3.2,7.061,7.061,0,0,1-.565,2.795,9.553,9.553,0,0,1-3.257,4.021,16.022,16.022,0,0,1-4.989,2.356,24.435,24.435,0,0,1-5.23.937,10.3,10.3,0,0,1-2.494-.238,21.926,21.926,0,0,1-3.4-.935,14.838,14.838,0,0,1-3.152-1.56,4.241,4.241,0,0,1-1.839-2.182,3.186,3.186,0,0,1,.348-2.84,5.794,5.794,0,0,1,2.461-1.908,13.432,13.432,0,0,1,3.844-1c.21-.026.422-.05.634-.069a23.34,23.34,0,0,1,3.939-.036,25.4,25.4,0,0,1,4.23.668c.126.029.253.062.379.1a16.743,16.743,0,0,1,3.982,1.557,16.687,16.687,0,0,0-1.924-1.653,15.634,15.634,0,0,0-3.1-1.777,20.382,20.382,0,0,0-5.613-1.56q-.656-.081-1.3-.119a17.516,17.516,0,0,0-4.073.224,11.814,11.814,0,0,0-4.4,1.629,6.814,6.814,0,0,0-2.623,2.943,5.624,5.624,0,0,0-.1,4.054,8.942,8.942,0,0,0,2.32,3.949,15.422,15.422,0,0,0,3.6,2.623,18.124,18.124,0,0,0,4.054,1.557,18.906,18.906,0,0,0,3.742.589,19.739,19.739,0,0,0,7.206-.832,18.971,18.971,0,0,0,6.584-3.393,14.1,14.1,0,0,0,4.235-5.58,9.552,9.552,0,0,0,.715-4.321,13,13,0,0,0-.572-3.057,16.4,16.4,0,0,0-3.119-5.485,52.248,52.248,0,0,0-5.232-5.439q-2.943-2.666-6.236-5.232t-6.167-4.955a53.868,53.868,0,0,1-4.886-4.531,9.738,9.738,0,0,1-2.494-4.018,11.685,11.685,0,0,1,.591-7.588,21.589,21.589,0,0,1,4.769-6.825,40.542,40.542,0,0,1,7.657-5.857,70.891,70.891,0,0,1,9.25-4.676,72.4,72.4,0,0,1,9.6-3.257,56.5,56.5,0,0,1,8.694-1.629,20.2,20.2,0,0,1,6.515.239q2.6.62,3.014,2.356.277,1.111-1.106,2.079a21.352,21.352,0,0,1-3.708,1.974q-2.323,1.006-5.2,2.146a59.1,59.1,0,0,0-5.649,2.6,32.842,32.842,0,0,0-5.094,3.291,11.72,11.72,0,0,0-3.429,4.192,7.365,7.365,0,0,0-.73,2.912,6.847,6.847,0,0,0,1,4.018,13.172,13.172,0,0,1,3.639-6.269,25.274,25.274,0,0,1,5.924-4.159q3.326-1.7,6.861-3.083a43.716,43.716,0,0,0,6.439-3.119,20.436,20.436,0,0,0,2.079-1.247,18.173,18.173,0,0,0,2.356-1.872c.25-.238.477-.477.7-.715a8.859,8.859,0,0,0,1.066-1.464A2.363,2.363,0,0,0,510.638,1238.095Zm-61.352-1.6a9.437,9.437,0,0,0-2.008,1.343,4.2,4.2,0,0,1,2.42-2.556,5.93,5.93,0,0,1,2.974-.477c.117.019.537.1.858.165-.215.219-.41.436-.589.651A10.939,10.939,0,0,0,449.286,1236.49Z" transform="translate(-427.044 -1224.744)" fill="#fff"/>
  </g>
</svg>
